<svg version="1.1" viewBox="0 0 2048 1074" width="1280" height="1280" xmlns="http://www.w3.org/2000/svg">
  <!-- removed background rect, making it transparent -->
  <path transform="translate(841,258)" d="m0 0h352l31 1 18 2 22 5 19 6 23 10 17 10 16 11 14 12 12 11 7 8 11 14 10 15 13 25 8 21 2 8-16 8-15 9-11 9-11 11-8 10-11 19-8 21-4 21-1 17-1 43h-613l-1-56-3-19-5-17-7-16-10-15-9-11-8-8-13-10-15-9-14-7 2-9 8-20 8-16 6-11 12-17 11-13 11-12 10-9 10-8 21-14 23-12 18-7 23-6 17-3 9-1z" fill="#FFFFFF"/> <!-- changed logo color to white -->
  <path transform="translate(576,444)" d="m0 0h20l13 2 18 6 15 8 11 9 7 6 11 14 8 15 5 15 3 18v82l673-1v-57l1-28 3-16 6-15 7-13 7-9 9-10 14-11 16-8 15-5 13-2h20l12 2 16 5 16 8 14 11 9 9 8 11 8 16 5 15 2 15v16l-2 15-6 18-8 15-11 13-7 7-14 10-16 8-19 5-21 2-1 58-2 16-5 16-9 15-9 10-10 8-14 8-15 5-16 2h-20v25l-2 5-4 2h-65l-6-3-1-2-1-26-507-1v25l-3 5-3 2h-67l-4-3-1-3-1-20v-5l-29-2-19-5-15-8-11-9-7-7-9-14-6-14-3-17v-63l-23-2-15-4-12-5-14-8-13-12-7-7-9-14-6-12-5-17-2-16 1-15 2-13 5-15 9-17 9-11 10-10 14-10 15-7 13-4z" fill="#FFFFFF"/> <!-- changed logo color to white -->
</svg>